<svg width="1173" height="330" viewBox="0 0 1173 330" fill="none" xmlns="http://www.w3.org/2000/svg">
<path d="M195.748 50.3363H119.271C116.716 50.3363 114.668 52.5176 114.612 55.2291C113.067 131.444 75.492 203.781 10.8174 255.018C8.76404 256.644 8.29624 259.7 9.79741 261.901L54.5428 327.557C56.0651 329.791 59.031 330.296 61.1188 328.654C101.558 296.827 134.085 258.431 157.51 215.874C180.934 258.431 213.463 296.827 253.902 328.654C255.988 330.296 258.954 329.791 260.478 327.557L305.224 261.901C306.723 259.7 306.255 256.644 304.204 255.018C239.527 203.781 201.952 131.444 200.409 55.2291C200.353 52.5176 198.304 50.3363 195.748 50.3363Z" fill="white"/>
<path d="M302.889 97.8754L294.741 72.7016C293.083 67.5908 289.046 63.6098 283.908 62.0359L258.612 54.2588C255.121 53.1847 255.084 48.25 258.565 47.1297L283.732 38.9822C288.843 37.325 292.834 33.2791 294.408 28.1498L302.176 2.85556C303.25 -0.644152 308.185 -0.681259 309.315 2.80012L317.463 27.9737C319.12 33.0845 323.157 37.0657 328.296 38.6489L353.592 46.4167C357.083 47.4908 357.12 52.4256 353.638 53.5551L328.472 61.7026C323.361 63.3505 319.37 67.3965 317.796 72.535L310.028 97.82C308.954 101.32 304.018 101.357 302.889 97.8754Z" fill="white"/>
<g clip-path="url(#clip0_6_176)">
<path d="M971.483 136.735H949.898V111.067C949.898 109.707 949.284 108.453 948.212 107.623C947.172 106.818 945.838 106.532 944.569 106.846L925.579 111.459C923.635 111.932 922.277 113.668 922.277 115.682V136.735H911.455C909.066 136.735 907.121 138.691 907.121 141.097V156.631C907.121 159.037 909.066 160.995 911.457 160.995H922.277V223.665C922.523 250.305 939.792 253.975 958.415 253.975C960.256 253.975 962.098 253.924 963.968 253.868C965.856 253.812 967.77 253.755 969.742 253.755L969.962 253.741C972.501 253.419 974.076 251.667 974.076 249.17V232.525C974.076 230.119 972.132 228.164 969.742 228.164H963.208C953.754 228.164 949.898 224.027 949.898 213.885V160.995H971.483C973.875 160.995 975.817 159.037 975.817 156.631V141.097C975.817 138.691 973.875 136.735 971.483 136.735Z" fill="white"/>
<path d="M855.369 134.959C844.065 134.959 835.208 138.397 828.992 145.182V141.097C828.992 138.609 827.129 136.735 824.657 136.735H804.619C802.145 136.735 800.281 138.609 800.281 141.097V249.17C800.281 251.657 802.145 253.534 804.619 253.534H824.657C827.129 253.534 828.992 251.657 828.992 249.17V181.485C828.992 168.963 836.703 160.549 848.182 160.549C859.702 160.549 867.151 168.854 867.151 181.706V249.17C867.151 251.657 869.013 253.534 871.485 253.534H891.525C893.997 253.534 895.861 251.657 895.861 249.17V176.381C895.861 151.219 879.968 134.959 855.369 134.959Z" fill="white"/>
<path d="M754.326 183.558H711.676C711.926 179.846 712.41 177.253 713.27 174.98L713.31 174.863C716.087 165.499 722.746 160.55 732.566 160.55C743.142 160.55 750.631 166.226 753.143 176.239C753.677 177.861 754.094 180.478 754.326 183.558ZM732.566 134.96C709.291 134.96 691.655 147.947 685.397 169.662C683.346 176.144 682.465 184.234 682.707 194.355C682.707 206.802 684.389 216.818 687.833 224.934C695.455 244.222 712.103 255.089 734.724 255.529C735 255.533 735.276 255.535 735.554 255.535C754.383 255.535 770.531 247.85 779.973 234.334C781.309 232.29 780.962 230.245 778.988 228.569L765.49 217.26C764.235 216.192 763.066 216.093 762.303 216.18C761.497 216.283 760.312 216.725 759.24 218.252C753.871 226.008 746.434 229.938 737.166 229.938C724.521 229.738 716.49 224.686 713.232 214.754C712.273 212.603 711.852 209.478 711.481 206.044H778.961C781.546 206.044 783.285 204.302 783.297 201.706C783.525 194.206 783.493 188.317 782.632 182.18C778.971 150.846 762.127 134.96 732.566 134.96Z" fill="white"/>
<path d="M636.988 194.137C636.988 206.375 636.518 209.532 635.517 213.411C633.236 222.7 626.335 228.028 616.58 228.028C606.937 228.028 599.442 222.443 596.488 212.978C595.553 210.592 594.437 205.428 594.437 194.358C594.437 185.61 595.222 179.633 596.951 175.44C600.141 165.927 607.217 160.469 616.362 160.469C626.047 160.469 633.125 166.01 635.32 175.381C636.504 179.409 636.988 182.232 636.988 194.137ZM661.275 136.734H641.314C638.848 136.734 636.988 138.605 636.988 141.086V144.019C630.361 137.931 621.742 134.966 610.721 134.966C591.221 134.966 575.296 146.768 569.175 165.724C566.011 174.649 565.606 185.715 565.606 194.358C565.606 205.703 566.521 214.341 568.5 221.594C575.401 244.328 595.619 252.426 612.24 252.426C622.596 252.426 630.915 249.543 636.984 243.872C636.871 253.372 634.348 260.209 629.283 264.76C622.648 270.719 611.42 272.862 594.791 271.323C590.494 271.323 590.03 274.21 590.03 275.391L589.379 293.579C589.379 296.124 590.832 297.828 593.31 298.146C597.429 298.566 601.434 298.777 605.301 298.777C623.9 298.777 639.388 293.951 649.679 284.798C660.243 275.397 665.598 261.629 665.598 243.874V141.086C665.598 138.605 663.739 136.734 661.275 136.734Z" fill="white"/>
<path d="M555.873 137.192C552.829 135.989 549.474 135.404 545.616 135.404C535.368 135.404 527.025 139.516 520.763 147.636V141.099C520.763 138.693 518.819 136.735 516.427 136.735H496.387C493.996 136.735 492.051 138.691 492.051 141.097V249.17C492.051 251.575 493.998 253.534 496.389 253.534H516.427C518.819 253.534 520.763 251.575 520.763 249.17V186.368C520.763 172.828 530.668 166.206 540.627 165.637C544.084 165.158 546.041 165.315 548.247 165.746C550.709 166.228 553.034 164.736 553.584 162.349L558.899 143.069C559.439 140.616 558.138 138.089 555.873 137.192Z" fill="white"/>
<path d="M443.131 202.937V212.776C443.131 224.493 430.829 231.493 418.933 231.493C410.922 231.493 402.359 228.034 402.359 218.324C402.359 208.546 410.781 202.937 425.467 202.937H443.131ZM424.162 134.96C402.023 134.96 384.351 144.973 379.14 160.471C378.697 161.789 378.85 163.22 379.558 164.401C380.22 165.507 381.316 166.276 382.574 166.521L402.325 171.412C404.394 171.788 406.453 170.692 407.249 168.807C409.508 163.483 415.744 160.55 424.815 160.55C436.797 160.55 443.131 166.254 443.131 177.048V181.784H420.459C391.012 181.784 373.43 196.107 373.43 220.101C373.43 246.059 393.675 255.308 412.619 255.308C425.324 255.308 435.826 251.578 443.131 244.524V249.171C443.131 251.576 445.078 253.533 447.469 253.533H467.505C469.896 253.533 471.843 251.576 471.843 249.171V174.386C471.843 151.172 452.236 134.96 424.162 134.96Z" fill="white"/>
</g>
<path d="M1045.83 253.539H1070.62C1071.8 253.539 1072.98 253.04 1073.57 252.208L1099.34 214.265C1099.74 213.599 1100.13 213.599 1100.52 214.265L1126.1 252.208C1126.69 253.04 1127.87 253.539 1129.05 253.539H1153.84C1155.61 253.539 1156.59 252.707 1155.61 251.209L1117.44 195.793C1117.25 195.46 1117.25 195.127 1117.44 194.794L1155.61 139.378C1156.59 137.88 1155.61 137.048 1153.84 137.048H1129.05C1127.87 137.048 1126.69 137.547 1126.1 138.379L1100.52 176.489C1100.13 177.154 1099.74 177.154 1099.34 176.489L1073.77 138.379C1073.18 137.547 1072 137.048 1070.82 137.048H1045.83C1044.06 137.048 1043.08 137.88 1044.06 139.378L1082.23 194.794C1082.42 195.127 1082.42 195.46 1082.23 195.793L1044.06 251.209C1043.08 252.707 1044.06 253.539 1045.83 253.539Z" fill="white"/>
<defs>
<clipPath id="clip0_6_176">
<rect width="975.462" height="281.8" fill="white" transform="translate(0.354248 47.3357)"/>
</clipPath>
</defs>
</svg>
