<svg xmlns="http://www.w3.org/2000/svg" width="131" height="39" viewBox="0 0 131 39" fill="none">
	<g xmlns="http://www.w3.org/2000/svg" fill="#fff">
		<path d="M114.425 10.4705C114.425 14.438 117.195 15.6918 120.582 15.6918C123.745 15.6918 126.253 14.5315 126.253 11.9302C126.253 9.59087 124.625 9.31015 122.94 9.08558V8.33699C124.625 8.05627 126.066 7.68198 126.066 5.69823C126.066 3.28404 123.745 2.12373 120.582 2.12373C117.195 2.12373 114.612 3.37761 114.612 6.78368H117.607C117.607 5.26779 118.243 4.74378 120.582 4.74378C122.51 4.74378 123.071 5.19293 123.071 6.07252C123.071 6.93339 122.566 7.40126 121.443 7.40126H119.609V10.0213H121.443C122.566 10.0213 123.259 10.5079 123.259 11.5559C123.259 12.6226 122.51 13.0718 120.582 13.0718C118.243 13.0718 117.42 12.5478 117.42 10.4705H114.425Z"/>
		<path xmlns="http://www.w3.org/2000/svg" d="M15.1626 31.9831C21.0889 31.9831 25.5805 27.897 26.5162 21.9083H21.7439C20.9954 25.0898 18.4065 27.242 15.1626 27.242C11.2326 27.242 8.48774 24.3724 8.48774 20.4112C8.48774 16.5435 11.1078 13.5491 15.1626 13.5491C18.001 13.5491 20.278 15.1711 21.4008 17.7287H26.329C24.9254 12.3951 20.6211 8.80808 15.1626 8.80808C8.58132 8.80808 3.71551 13.6739 3.71551 20.4112C3.71551 27.1484 8.58132 31.9831 15.1626 31.9831ZM34.1358 22.8129H37.4109L43.3996 31.7023H49.0763L42.9005 22.2202C45.5829 21.4717 47.1425 19.6626 47.1425 15.9196C47.1425 10.5548 43.1188 9.05761 38.7209 9.05761H29.3324V31.7023H34.1358V22.8129ZM38.6897 13.7363C41.0602 13.7363 42.4015 14.4537 42.4015 15.9196C42.4015 17.3544 41.0602 18.0095 38.6897 18.0095H34.1358V13.7363H38.6897ZM57.0425 22.8129H67.0236V18.0095H57.0425V13.7363H70.2363V9.05761H52.2079V31.7023H70.2363V27.0237H57.0425V22.8129ZM99.2589 9.05761L95.0169 19.4754L90.6813 9.05761H87.3439L82.9771 19.4754L78.7663 9.05761H73.6822L82.9771 31.7023L88.997 17.1985L95.0169 31.7023L104.312 9.05761H99.2589Z"/>
	</g>
</svg>